# xmcd CD database file
#
# Track frame offsets:
#	150
#	16223
#	31760
#	48785
#	64196
#
# Disc length: 1039 seconds
#
# Revision: 0
# Processed by: cddbd v1.4PL0 Copyright (c) Steve Scherf et al.
# Submitted via: CDex 1.51
#
DISCID=31040d05
DTITLE=Spirit Canyon - The Old Fashioned Way
DYEAR=2003
DGENRE=Country
TTITLE0=One Banker Man
TTITLE1=It Ain't The Fall
TTITLE2=The Old Fashioned Way
TTITLE3=Forever In My Mind
TTITLE4=If It Was Me
EXTD=YEAR: 2003
EXTT0=
EXTT1=
EXTT2=
EXTT3=
EXTT4=
PLAYORDER=
